<?xml version="1.0" standalone="no"?>
<!DOCTYPE svg PUBLIC "-//W3C//DTD SVG 20010904//EN"
 "http://www.w3.org/TR/2001/REC-SVG-20010904/DTD/svg10.dtd">
<svg version="1.0" xmlns="http://www.w3.org/2000/svg"
 width="50.000000pt" height="50.000000pt" viewBox="0 0 50.000000 50.000000"
 preserveAspectRatio="xMidYMid meet">
<metadata>
Created by potrace 1.13, written by Peter Selinger 2001-2015
</metadata>
<g transform="translate(0.000000,50.000000) scale(0.100000,-0.100000)"
fill="#000000" stroke="none">
<path d="M340 398 c0 -11 12 -10 30 2 12 7 10 9 -8 7 -12 0 -22 -5 -22 -9z"/>
<path d="M390 400 c0 -9 39 -25 46 -18 2 3 -7 10 -21 16 -14 6 -25 7 -25 2z"/>
<path d="M185 353 c-44 -23 -74 -53 -96 -95 -34 -67 -22 -106 44 -140 63 -33
159 -31 219 5 71 41 87 113 29 132 -14 4 -19 14 -18 33 2 26 1 27 -51 26 -44
-2 -53 1 -51 15 4 46 -20 54 -76 24z m112 -88 c43 -18 53 -30 53 -66 0 -44
-65 -89 -131 -89 -46 0 -98 26 -109 55 -14 37 5 71 54 95 49 24 84 25 133 5z"/>
<path d="M176 221 c-45 -50 13 -114 72 -80 30 16 41 61 21 85 -17 20 -73 18
-93 -5z m44 -47 c0 -8 -9 -14 -20 -14 -22 0 -28 26 -7 33 16 6 27 -1 27 -19z"/>
<path d="M350 350 c0 -5 5 -10 11 -10 5 0 7 5 4 10 -3 6 -8 10 -11 10 -2 0 -4
-4 -4 -10z"/>
<path d="M385 340 c3 -5 8 -10 11 -10 2 0 4 5 4 10 0 6 -5 10 -11 10 -5 0 -7
-4 -4 -10z"/>
<path d="M440 343 c0 -15 18 -35 23 -27 3 5 -1 15 -9 22 -8 7 -14 9 -14 5z"/>
</g>
</svg>
